<svg width="60" height="60" viewBox="0 0 60 60" fill="none" xmlns="http://www.w3.org/2000/svg">
<g opacity="0.46">
<path fill-rule="evenodd" clip-rule="evenodd" d="M22.5001 2.5C21.1193 2.5 20.0001 3.61929 20.0001 5C20.0001 6.38071 21.1193 7.5 22.5001 7.5H37.5001C38.8808 7.5 40.0001 6.38071 40.0001 5C40.0001 3.61929 38.8808 2.5 37.5001 2.5H22.5001ZM36.6972 16.3322C32.9567 14.7828 28.7947 14.5783 24.9203 15.7536C21.0459 16.9289 17.6989 19.4112 15.4496 22.7776C13.2002 26.144 12.1877 30.1861 12.5845 34.2154C12.9814 38.2446 14.763 42.0115 17.6259 44.8744C20.4888 47.7373 24.2558 49.519 28.285 49.9158C32.3142 50.3126 36.3564 49.3001 39.7228 47.0508C43.0891 44.8014 45.5715 41.4544 46.7467 37.58C47.922 33.7057 47.7176 29.5436 46.1682 25.8031C45.6398 24.5275 46.2456 23.0651 47.5212 22.5367C48.7968 22.0083 50.2592 22.6141 50.7876 23.8897C52.7796 28.6989 53.0425 34.0501 51.5314 39.0315C50.0204 44.0128 46.8288 48.3161 42.5006 51.2081C38.1724 54.1001 32.9753 55.4019 27.7949 54.8917C22.6145 54.3815 17.7712 52.0908 14.0904 48.41C10.4095 44.7291 8.11885 39.8859 7.60862 34.7054C7.0984 29.525 8.4002 24.3279 11.2922 19.9997C14.1842 15.6715 18.4875 12.48 23.4689 10.9689C28.4502 9.45783 33.8014 9.72072 38.6107 11.7128C39.8863 12.2412 40.492 13.7036 39.9637 14.9792C39.4353 16.2548 37.9729 16.8605 36.6972 16.3322ZM28.2321 34.2679C27.2557 33.2916 27.2557 31.7087 28.2321 30.7324L45.9097 13.0547C46.886 12.0784 48.469 12.0784 49.4453 13.0547C50.4216 14.031 50.4216 15.6139 49.4453 16.5903L31.7676 34.2679C30.7913 35.2442 29.2084 35.2442 28.2321 34.2679Z" fill="white" fill-opacity="0.96"/>
</g>
</svg>
